PathFileType	4	(X/Y/Z)	./resultDataOpenSim/trcMotMarkerGrf/sub10/qtm-01-03.trc
DataRate	CameraRate	NumFrames	NumMarkers	Units	OrigDataRate	OrigDataStartFrame	OrigNumFrames
250.000000	250.000000	6	24	m	250.000000	1	482
Frame#	Time	L.Toe.Tip			R.Toe.Tip			L.Ankle.Lat			R.Ankle.Lat			L.Ankle.Med			R.Ankle.Med			L.Heel			R.Heel			L.Knee.Lat			R.Knee.Lat			L.Knee.Med			R.Knee.Med			L.Thigh.Upper			R.Thigh.Upper			L.ASIS			R.ASIS			V.Sacral			L.Acromium			R.Acromium			C7			L.Elbow			R.Elbow			L.Wrist.Lat			R.Wrist.Lat
		X1	Y1	Z1	X2	Y2	Z2	X3	Y3	Z3	X4	Y4	Z4	X5	Y5	Z5	X6	Y6	Z6	X7	Y7	Z7	X8	Y8	Z8	X9	Y9	Z9	X10	Y10	Z10	X11	Y11	Z11	X12	Y12	Z12	X13	Y13	Z13	X14	Y14	Z14	X15	Y15	Z15	X16	Y16	Z16	X17	Y17	Z17	X18	Y18	Z18	X19	Y19	Z19	X20	Y20	Z20	X21	Y21	Z21	X22	Y22	Z22	X23	Y23	Z23	X24	Y24	Z24

1	0	-1.5229405	0.038574084	-0.093386268	-0.89872422	0.10316549	0.052767339	-1.6519005	0.067691192	-0.13826626	-1.0361127	0.063532018	0.069764972	-1.6575549	0.091935539	-0.053060369	-1.0207275	0.10168882	-0.0085442417	NaN	NaN	NaN	-1.0648555	0.023240057	0.01344134	-1.4939285	0.42419362	-0.17403527	-1.1678125	0.44332004	0.10425592	-1.4970849	0.40626778	-0.052411862	-1.1479471	0.45308785	-0.024011634	-1.3757759	0.79998376	-0.24011604	-1.3219449	0.8310278	0.14337403	-1.2970479	0.90258856	-0.18147072	-1.2602706	0.91532811	0.064338529	-1.477311	0.92996943	-0.036076579	-1.2799987	1.3748319	-0.20691468	-1.3352227	1.3783492	0.11232093	-1.3879235	1.4151893	-0.065365385	-1.3613417	1.0336042	-0.26606657	-1.5238459	1.0828165	0.14228974	-1.1815713	0.86269091	-0.24503634	-1.4747873	0.85451516	0.21129526
2	0.004	-1.5229038	0.038568731	-0.093441667	-0.88692021	0.10642505	0.052625118	-1.6517724	0.068165377	-0.13803257	-1.0236769	0.064310851	0.070524094	-1.6551323	0.092863187	-0.052956903	-1.0093597	0.10275579	-0.0080105761	NaN	NaN	NaN	-1.0521426	0.023560902	0.01464842	-1.4920258	0.42384235	-0.17417829	-1.1625285	0.44166604	0.10487022	-1.4950599	0.40558306	-0.052300313	-1.1437279	0.4508189	-0.023905615	-1.3728153	0.79933898	-0.2400906	-1.3157859	0.82920441	0.14349877	-1.2931793	0.90146358	-0.18162076	-1.254523	0.91396295	0.063952387	-1.4724393	0.92848731	-0.034600885	-1.2752533	1.3732994	-0.20674222	-1.3301303	1.3768038	0.11259847	-1.3830266	1.4138931	-0.064968874	-1.3554174	1.0316832	-0.26578501	-1.5199645	1.0821972	0.14242275	-1.1739528	0.86249105	-0.24355601	-1.4709604	0.85350765	0.21165884
3	0.008	-1.522859	0.038561307	-0.093496993	-0.87537081	0.10950131	0.052277488	-1.6516249	0.068704396	-0.13776349	-1.0115461	0.065088034	0.071242368	-1.6526217	0.093844539	-0.052773144	-0.99824063	0.10380917	-0.0074860279	NaN	NaN	NaN	-1.0397536	0.023915275	0.015772371	-1.4900976	0.42348725	-0.17429354	-1.1571657	0.44010653	0.10549791	-1.4929699	0.40492275	-0.052160755	-1.1394334	0.44864236	-0.023744647	-1.3697914	0.79870874	-0.23997963	-1.3096087	0.82739138	0.14367893	-1.2893446	0.90032666	-0.18180851	-1.2487235	0.91259934	0.0635726	-1.4675274	0.92704174	-0.033144498	-1.2704732	1.3717646	-0.20654978	-1.3250132	1.3752658	0.11287103	-1.3781307	1.4125887	-0.064627792	-1.3494363	1.0297469	-0.26536934	-1.515966	1.0814574	0.1424968	-1.1663466	0.86229476	-0.24206607	-1.4671479	0.85251508	0.21201247
4	0.012	-1.5228081	0.038552265	-0.093548494	-0.86424984	0.11226463	0.051689346	-1.6514583	0.069333186	-0.13745635	-0.99988583	0.06585106	0.071918285	-1.6502363	0.094831138	-0.05255958	-0.98752235	0.10481806	-0.0069735571	NaN	NaN	NaN	-1.027893	0.024313955	0.016783567	-1.4880799	0.42314336	-0.17436754	-1.1516887	0.43869306	0.10613678	-1.490741	0.40430876	-0.051985112	-1.1350157	0.44662492	-0.023486828	-1.3666623	0.79810449	-0.23976366	-1.3033417	0.82559791	0.14393571	-1.2855528	0.89917563	-0.18204009	-1.2428926	0.91123372	0.063191098	-1.4625479	0.92564506	-0.031730098	-1.2656298	1.3702315	-0.20632411	-1.3198305	1.373742	0.1131437	-1.373214	1.4112766	-0.064335056	-1.3433607	1.0277841	-0.26474583	-1.5117763	1.0805279	0.14250542	-1.1587539	0.86210455	-0.24055844	-1.4633267	0.8515324	0.21236989
5	0.016	-1.5227576	0.038545605	-0.093591235	-0.85366111	0.114653	0.050955453	-1.6512791	0.070037777	-0.13713156	-0.98877732	0.066568847	0.072560899	-1.648258	0.095743556	-0.05242826	-0.97728842	0.1057435	-0.0064696163	NaN	NaN	NaN	-1.0166576	0.024740375	0.017696341	-1.4858979	0.42283387	-0.17440601	-1.1460884	0.43744565	0.10678191	-1.4882894	0.40375199	-0.051797268	-1.130464	0.4448081	-0.023123551	-1.3634373	0.79753206	-0.23947648	-1.2969507	0.82384071	0.14425573	-1.2817305	0.89803679	-0.1822803	-1.237102	0.90986201	0.062792128	-1.4574996	0.92428832	-0.030362369	-1.2607205	1.3687147	-0.20606057	-1.3145749	1.3722447	0.11342882	-1.3682544	1.4099722	-0.064033525	-1.3372055	1.0258057	-0.263942	-1.5073741	1.0793871	0.14247727	-1.151194	0.86192209	-0.2390387	-1.4594686	0.85054648	0.21274232
6	0.02	-1.522709	0.03854621	-0.093624442	-0.84362754	0.11664554	0.050181908	-1.651085	0.070804954	-0.13679997	-0.97830118	0.067187207	0.073154064	-1.6465928	0.096626464	-0.052363998	-0.96757308	0.10655738	-0.0059736695	NaN	NaN	NaN	-1.0060694	0.025162286	0.018533293	-1.4835243	0.42256833	-0.17443764	-1.1403633	0.43636638	0.10742853	-1.4855318	0.4032456	-0.051634325	-1.1257727	0.44321116	-0.022676494	-1.3601574	0.79698434	-0.23916062	-1.2904807	0.82213437	0.14461386	-1.2777272	0.89696009	-0.18246876	-1.2313741	0.90848745	0.062375303	-1.4523917	0.92295277	-0.029016744	-1.2557588	1.3672244	-0.20576266	-1.3092894	1.3707806	0.11374064	-1.3632442	1.4086916	-0.063678068	-1.3310195	1.0238528	-0.26306874	-1.5027526	1.0780523	0.14241817	-1.143685	0.86174783	-0.23751785	-1.4555584	0.84955327	0.21312034
